# xmcd
#
# Track frame offsets: 
#        150
#        33335
#        58457
#        86775
#        116360
#        145757
#        174272
#        199572
#        235309
#        259909
#        283005
#        308980
#
# Disc length: 4343 seconds
#
# Revision: 0
# Processed by: cddbd v1.5.2PL0 Copyright (c) Steve Scherf et al.
# Submitted via: ExactAudioCopy v1.0b3
#
DISCID=ab10f50c
DTITLE=Various Artist - EAMS Trends Vol. 02 - CD 1
DYEAR=1900
DGENRE=
TTITLE0=Lady Tom - House Of House (De Donatis Rmx)
TTITLE1=DJ Bonebreaker - Druck!
TTITLE2=Fatima Vs. DJ Taylor and Flow - Salaam Aleikum (Main Mix)
TTITLE3=Better DJ's - Two Turntables (Original Mix)
TTITLE4=Night Base - Nautica (Xtd Version)
TTITLE5=Shaun Baker - On A Helium Trip (Original Club Mix)
TTITLE6=D-Devils - The 6th Gate (Miss Distress X Rmx)
TTITLE7=The Greatest DJ - Feel My Passion (Original Mix)
TTITLE8=Frank Starr - Moments (Original Club Mix)
TTITLE9=Nunca - House Of Doom (Original Mix)
TTITLE10=Mr. Jack - Only House Muzik (Original ´95 Thriller Mix)
TTITLE11=DJ Taylor and Flow - What Is Time (1st Half Time)
EXTD=
EXTT0=
EXTT1=
EXTT2=
EXTT3=
EXTT4=
EXTT5=
EXTT6=
EXTT7=
EXTT8=
EXTT9=
EXTT10=
EXTT11=
PLAYORDER=
